<?xml version="1.0" encoding="utf-8"?>
<!-- Generator: Adobe Illustrator 24.0.3, SVG Export Plug-In . SVG Version: 6.00 Build 0)  -->
<svg
  version="1.1"
  id="Layer_1"
  xmlns="http://www.w3.org/2000/svg"
  xmlns:xlink="http://www.w3.org/1999/xlink"
  width="512"
  height="176"
  viewBox="0 0 512 176"
  preserveAspectRatio="xMaxYMid meet"
>
  <g>
    <path
      fill="#000"
      d="M55.1,121.8c13,0,23.8-11.3,23.8-25.1c0-13.2-8.9-22.2-20.9-22.2c-6,0-12.1,3.7-13.9,9.9v-20
		c0-2.9,0.1-5.8,0.2-8.6c0-1.2-0.9-1.4-1.5-1.2c-4.8,1.6-9.9,2.7-14.7,3.6c-1.6,0.3-1.4,2.1,0.3,2c4.1-0.2,5.9,0.9,5.9,4.4v46.3
		c0,3.1-0.1,6.3-0.2,9.5c0,0.8,0.3,0.9,0.6,0.9c0.4,0,0.8-0.3,1.4-0.9c1.7-1.6,3.7-3.5,5.2-4.9C43.9,119.3,50,121.8,55.1,121.8
		L55.1,121.8z M44,90.1C44.2,83.6,49.3,78,55.1,78c8.1,0,13.4,6.7,13.4,19.9c0,12.4-5.1,21.8-13.4,21.8c-5.5,0-11-4-11.1-13V90.1
		L44,90.1z M131.6,97.6c0-13.9-10.4-23.2-24-23.2c-12.3,0-23.1,11.1-23.1,24.1c0,13.8,10.5,23.2,23.9,23.2
		C120.9,121.8,131.6,110.7,131.6,97.6L131.6,97.6z M94.8,97.8c0-12.5,5.3-21.2,13-21.2c7.9,0,13.4,8.6,13.4,21.5
		c0,12.7-5.4,21.3-13.1,21.3C100,119.4,94.8,111,94.8,97.8L94.8,97.8z M141.1,83.9v30.9c0,2.9-1.5,4.1-6,4.3c-1.4,0-1.6,2,0.1,1.9
		c6.8-0.2,14.4-0.2,21.3,0c1.7,0.1,1.5-1.9,0.1-1.9c-4.4-0.3-5.7-1.4-5.7-4.3V91.2c0.1-8.3,5.1-12.4,10.5-12.4
		c5.8,0,9.2,3.7,9.2,10.8v25.1c0,2.9-1,4.1-5.4,4.3c-1.4,0-1.6,2,0.1,1.9c6.8-0.2,14.2-0.2,21,0c1.7,0.1,1.5-1.9,0.1-1.9
		c-4.5-0.3-6-1.4-6-4.3V90.2c0-11.2-6.1-15.9-15-15.9c-5.4,0-11.7,2.9-14.3,10.2v-0.8c0-2.9,0.1-5.8,0.2-8.6c0-1.2-0.9-1.4-1.5-1.2
		c-4.8,1.6-9.9,2.9-14.6,3.6c-1.6,0.3-1.4,2.1,0.3,2C139.3,79.3,141.1,80.3,141.1,83.9L141.1,83.9z M219.5,122
		c6.4,0,12.3-3.9,14.8-9.2v0.4c0,5.6,3.8,8.6,8.6,8.6c4.1,0,6.9-1.7,8.6-4.6c0.8-1.4-0.6-2-1.2-1.1c-0.8,1.1-1.6,2.2-3.3,2.2
		c-1.9,0-3-1.5-3-4.6l0.1-24.3c0-11.4-8.1-15.1-16.8-15.1c-10.7,0-18.6,7-18.6,13.6c0,2.6,1.7,5,5,5c2.4,0,4.8-1.9,4.8-4.4
		c0-3.8-4.1-3.3-4.1-5.7c0-1.8,3.7-6.2,10.5-6.2c6,0,9.5,3.3,9.5,9.9v8.1l-13,5.1c-11,4.3-13.4,8.2-13.4,12.6
		C207.8,118.4,213.3,122,219.5,122L219.5,122z M217.4,111.3c0-4.7,2.5-8.6,11.7-12.3l5.1-2.2v10.5c0,5.2-4.9,10.4-10.2,10.4
		C219.8,117.6,217.4,114.8,217.4,111.3L217.4,111.3z M278.7,121.8c13,0,23.7-11.3,23.7-25.1c0-13.2-8.9-22.2-20.9-22.2
		c-5.9,0-12.1,3.7-13.9,9.9v-0.6c0-2.9,0.1-5.8,0.2-8.6c0-1.2-0.9-1.4-1.5-1.2c-4.8,1.6-9.8,2.9-14.6,3.6c-1.6,0.3-1.4,2.1,0.3,2
		c4.2-0.2,5.9,0.9,5.9,4.4v53.9c0,2.9-1.5,4.1-6,4.3c-1.4,0-1.6,2,0.1,1.9c7-0.2,14.9-0.2,21.9,0c1.7,0.1,1.5-1.9,0.1-1.9
		c-4.8-0.3-6.3-1.4-6.3-4.3v-19.5C270.7,120.4,275.1,121.8,278.7,121.8L278.7,121.8z M267.6,90.1c0.2-6.5,5.3-12.1,11.1-12.1
		c8.1,0,13.4,6.7,13.4,19.9c0,12.4-5.1,21.8-13.4,21.8c-5.5,0-11-4-11.1-13L267.6,90.1L267.6,90.1z M332.7,121.8
		c13,0,23.7-11.3,23.7-25.1c0-13.2-8.9-22.2-20.9-22.2c-5.9,0-12.1,3.7-13.9,9.9v-0.6c0-2.9,0.1-5.8,0.2-8.6c0-1.2-0.9-1.4-1.5-1.2
		c-4.8,1.6-9.9,2.9-14.6,3.6c-1.6,0.3-1.4,2.1,0.3,2c4.1-0.2,5.9,0.9,5.9,4.4v53.9c0,2.9-1.5,4.1-6,4.3c-1.4,0-1.6,2,0.1,1.9
		c7-0.2,14.9-0.2,21.9,0c1.7,0.1,1.5-1.9,0.1-1.9c-4.8-0.3-6.3-1.4-6.3-4.3v-19.5C324.6,120.4,328.9,121.8,332.7,121.8L332.7,121.8z
		 M321.6,90.1c0.2-6.5,5.3-12.1,11.1-12.1c8.1,0,13.4,6.7,13.4,19.9c0,12.4-5.1,21.8-13.4,21.8c-5.5,0-11-4-11.1-13V90.1L321.6,90.1
		z M377.3,69.9c5.9-1.2,11.3-3.3,15.7-5.6c3.4-1.7,4.5-4,4.5-5.8c0-2.2-1.6-3.9-4-3.9c-1.8,0-3.4,0.9-5.5,4c-3.3,4.8-6.1,7.8-11,9.9
		c-0.5,0.2-0.7,0.6-0.6,0.9C376.5,69.9,376.9,70,377.3,69.9L377.3,69.9z M384.2,121.9c8.3,0,15.7-5,18.5-12.3
		c0.3-0.8-0.7-1.5-1.3-0.7c-3.2,4.3-7.8,6.4-13.9,6.4c-9.7,0-15.6-8.6-15.6-19.4c0-1.5,0.1-3,0.3-4.4l29.3-0.2c1.3,0,1.6-0.8,1.5-2
		c-0.7-8.9-9.7-14.7-18.3-14.7c-12.7,0-22.6,11.2-22.6,23.9C362,111.8,372,121.9,384.2,121.9L384.2,121.9z M384.4,76.7
		c5.4,0,9.2,3.9,9.2,9.5c0,1.6-0.8,2.5-2.9,2.6l-18.1,0.4C374.2,81.8,378.6,76.7,384.4,76.7L384.4,76.7z M421,121.9
		c4.8,0,8.8-2.2,11.4-6.7c0.7-1.2-0.6-1.9-1.3-0.8c-1,1.6-2.9,3.1-5,3.1c-3,0-4.6-2.4-4.6-5.4V79.5h9.3c1.6,0,1.6-2.2,0-2.2h-9.3
		V66.5c0-1.1-1.3-1.3-1.8-0.2c-3.2,6.8-8.8,10.5-14.5,11.5c-1,0.2-1,1.7,0.2,1.7h6.5v32.9C411.9,118.2,415.8,121.9,421,121.9
		L421,121.9z M452.1,60.7c0-3.4-2.7-6-6-6c-3.3,0-6,2.7-6,6c0,3.3,2.7,6,6,6C449.4,66.8,452.1,64,452.1,60.7L452.1,60.7z
		 M441.1,83.9v30.9c0,2.9-1.5,4.1-6,4.3c-1.4,0-1.6,2,0.1,1.9c6.8-0.2,14.7-0.2,21.5,0c1.7,0.1,1.5-1.9,0.1-1.9
		c-4.5-0.3-6-1.4-6-4.3V83.7c0-2.9,0.1-5.8,0.2-8.6c0-1.2-0.9-1.4-1.5-1.2c-4.5,1.6-9.5,2.9-13.9,3.6c-1.6,0.3-1.4,2.1,0.3,2
		C439.6,79.3,441.1,80.3,441.1,83.9L441.1,83.9z M472.8,121.9c4.8,0,8.8-2.2,11.4-6.7c0.7-1.2-0.6-1.9-1.3-0.8c-1,1.6-2.9,3.1-5,3.1
		c-3,0-4.6-2.4-4.6-5.4V79.5h9.3c1.6,0,1.6-2.2,0-2.2h-9.3V66.5c0-1.1-1.3-1.3-1.8-0.2c-3.2,6.8-9.1,10.5-14.9,11.5
		c-1,0.2-1,1.7,0.2,1.7h6.9v32.9C463.7,118.2,467.6,121.9,472.8,121.9L472.8,121.9z"
    />
  </g>
</svg>
