<?xml version="1.0"?>
<svg width="1256" height="134" xmlns="http://www.w3.org/2000/svg" xmlns:svg="http://www.w3.org/2000/svg" preserveAspectRatio="xMidYMid meet" version="1.0">
 <g class="layer">
  <title>Layer 1</title>
  <g fill="#000000" id="svg_1" transform="matrix(0.1 0 0 -0.1 0 0)">
   <path d="m2146,-136c-126,-30 -234,-114 -287,-221c-21,-41 -24,-63 -24,-153c0,-97 2,-110 32,-172c17,-37 53,-90 79,-118c26,-27 40,-50 33,-50c-8,0 -82,44 -164,97c-152,98 -221,134 -330,171c-91,31 -265,80 -310,86l-40,6l40,-19c22,-10 81,-36 130,-57c174,-73 361,-172 490,-259c153,-102 149,-103 -124,-15c-359,115 -567,160 -740,160c-179,0 -561,-56 -561,-81c0,-5 10,-7 23,-4c99,21 477,34 447,15c-8,-5 -37,-10 -65,-10c-27,0 -113,-12 -190,-26c-77,-13 -165,-29 -195,-34c-169,-31 -278,55 -207,161c50,75 150,90 211,30c37,-36 51,-39 66,-11c30,57 -87,131 -183,116c-77,-13 -153,-69 -176,-129c-17,-45 -13,-118 8,-150c58,-89 174,-107 401,-64c182,35 263,45 410,53l125,6l-32,-34c-57,-59 -53,-135 9,-180c59,-41 150,-18 172,45c12,34 -15,77 -49,77c-32,0 -41,-17 -20,-40c38,-42 -35,-70 -75,-30c-68,68 39,143 160,113c103,-27 120,-28 120,-5c0,19 -13,27 -87,51c-16,5 -93,19 -173,31c-163,25 -189,32 -145,38c32,4 186,-14 245,-28c192,-48 253,-65 368,-100c72,-22 191,-58 264,-80c251,-77 461,-105 858,-116c251,-6 276,-5 289,10c12,15 12,19 -3,34c-14,15 -50,18 -269,23c-241,5 -255,6 -332,33c-103,35 -240,114 -309,177c-61,56 -95,108 -121,188c-49,150 37,320 194,383c80,32 215,31 289,-1c78,-35 136,-110 118,-156c-3,-8 -17,-20 -31,-27c-22,-10 -29,-8 -53,15c-31,30 -67,35 -76,11c-10,-26 21,-69 63,-89c35,-15 47,-16 80,-6c22,6 52,26 66,43c24,28 27,39 23,85c-8,95 -90,169 -224,203c-89,23 -136,24 -218,4z" fill="#f9b85c" id="svg_2" stroke="#e53d3d"/>
   <path d="m10200,-138c-139,-36 -224,-119 -225,-218c0,-41 5,-58 23,-77c34,-36 91,-52 136,-37c42,13 78,55 74,84c-4,30 -34,31 -69,2c-37,-31 -53,-32 -80,-5c-39,39 11,123 98,165c51,25 69,28 153,29c83,0 102,-4 155,-28c249,-116 263,-420 29,-597c-75,-56 -202,-123 -289,-151c-62,-19 -100,-23 -315,-29c-135,-3 -253,-10 -262,-14c-27,-12 -22,-45 8,-52c34,-9 502,4 619,17c262,28 368,52 705,159c295,93 544,150 660,150c79,0 28,-16 -125,-39c-148,-23 -255,-55 -263,-79c-7,-22 29,-25 82,-8c95,29 170,20 208,-28c24,-29 22,-48 -5,-74c-25,-23 -53,-28 -77,-12c-12,8 -13,13 -2,30c19,31 15,50 -11,50c-56,0 -76,-74 -32,-114c31,-29 67,-37 111,-25c36,10 81,57 90,94c6,26 -20,83 -47,103c-42,29 -21,35 109,27c131,-7 245,-22 415,-56c110,-21 222,-25 282,-8c46,13 111,73 120,112c30,119 -79,242 -215,241c-95,0 -184,-64 -154,-111c16,-26 32,-27 56,0c48,50 102,60 165,30c61,-28 92,-110 63,-164c-29,-53 -155,-69 -296,-36c-92,22 -262,47 -316,47c-24,0 -50,5 -58,10c-22,14 198,12 350,-4c117,-12 140,-12 129,-2c-9,9 -208,46 -329,61c-312,38 -489,10 -1028,-162c-172,-55 -223,-63 -167,-28c17,10 81,52 143,93c113,73 262,149 482,244c63,27 116,51 118,53c10,9 -81,-9 -177,-37c-219,-62 -313,-104 -483,-216c-104,-69 -160,-102 -173,-102c-4,0 11,20 32,44c120,136 152,307 84,451c-52,111 -141,180 -276,215c-94,24 -139,24 -225,2z" fill="#f9b85c" id="svg_3" stroke="#e53d3d"/>
   <path d="m3592,-677c-32,-6 -46,-37 -26,-57c14,-14 276,-16 2718,-16c2351,0 2705,2 2716,15c20,24 8,49 -30,57c-36,7 -5338,8 -5378,1z" fill="#f9b85c" id="svg_4" stroke="#e53d3d"/>
   <path d="m2380,-835c-7,-8 -10,-22 -6,-30c5,-13 194,-15 1668,-17c915,-1 2669,-1 3898,1c2360,3 2287,2 2250,45c-11,14 -401,16 -3905,16c-3433,0 -3894,-2 -3905,-15z" fill="#f9b85c" id="svg_5" stroke="#e53d3d"/>
   <path d="m5340,-959c-62,-6 -65,-7 -68,-33c-3,-22 2,-28 20,-33c13,-3 466,-4 1007,-3c920,3 985,4 995,20c8,14 7,22 -7,35c-17,17 -72,18 -950,19c-513,1 -961,-2 -997,-5z" fill="#f9b85c" id="svg_6" stroke="#e53d3d"/>
  </g>
 </g>
</svg>